<svg width="22" height="24" viewBox="0 0 22 24" fill="none" xmlns="http://www.w3.org/2000/svg">
<path d="M5.27395 0H4.67124C4.59433 0 4.52139 0.0161599 4.45074 0.039122C4.0977 0.153618 3.83674 0.530526 3.83674 0.982651V1.39754V2.4595V3.012C3.83674 3.11466 3.85384 3.21166 3.87865 3.30453C3.98489 3.70346 4.29751 3.99465 4.67124 3.99465H5.27395C5.73492 3.99465 6.10845 3.55476 6.10845 3.012V2.4595V1.39754V0.982651C6.10845 0.439897 5.73492 0 5.27395 0Z" fill="#29F4D5"/>
<path d="M17.1372 0H16.5345C16.0735 0 15.7 0.439897 15.7 0.982651V1.39754V2.4595V3.012C15.7 3.55476 16.0735 3.99465 16.5345 3.99465H17.1372C17.5982 3.99465 17.9717 3.55476 17.9717 3.012V2.4595V1.39754V0.982651C17.9715 0.439897 17.598 0 17.1372 0Z" fill="#29F4D5"/>
<path d="M20.2158 2.45947H18.7235V3.01198C18.7235 3.96848 18.0117 4.7466 17.137 4.7466H16.5343C15.6596 4.7466 14.9478 3.96848 14.9478 3.01198V2.45947H6.86042V3.01198C6.86042 3.96848 6.14868 4.7466 5.27395 4.7466H4.67124C3.79648 4.7466 3.08477 3.96848 3.08477 3.01198V2.45947H1.78447C0.956181 2.45947 0.284462 3.08924 0.284462 3.86566V22.5938C0.284462 23.3717 0.956142 24 1.78447 24H20.2156C21.0446 24 21.7155 23.3715 21.7155 22.5938V3.86586C21.7157 3.08944 21.0448 2.45947 20.2158 2.45947ZM19.7507 21.9358L2.19484 21.9291V6.83029H19.7507V21.9358Z" fill="#29F4D5"/>
<path d="M12.8801 10.4689H17.4972C17.898 10.4689 18.2222 10.0687 18.2222 9.57405C18.2222 9.07942 17.8979 8.6792 17.4972 8.6792H12.8801C12.4794 8.6792 12.1552 9.07942 12.1552 9.57405C12.1552 10.0685 12.4793 10.4689 12.8801 10.4689Z" fill="#29F4D5"/>
<path d="M12.8801 13.7012H17.4972C17.898 13.7012 18.2222 13.301 18.2222 12.8064C18.2222 12.3118 17.8979 11.9116 17.4972 11.9116H12.8801C12.4794 11.9116 12.1552 12.3118 12.1552 12.8064C12.1552 13.301 12.4793 13.7012 12.8801 13.7012Z" fill="#29F4D5"/>
<path d="M12.8801 16.9336H17.4972C17.898 16.9336 18.2222 16.5333 18.2222 16.0387C18.2222 15.5441 17.8979 15.1439 17.4972 15.1439H12.8801C12.4794 15.1439 12.1552 15.5441 12.1552 16.0387C12.1552 16.5333 12.4793 16.9336 12.8801 16.9336Z" fill="#29F4D5"/>
<path d="M12.8801 20.1661H17.4972C17.898 20.1661 18.2222 19.7658 18.2222 19.2713C18.2222 18.7766 17.8979 18.3764 17.4972 18.3764H12.8801C12.4794 18.3764 12.1552 18.7766 12.1552 19.2713C12.1552 19.7658 12.4793 20.1661 12.8801 20.1661Z" fill="#29F4D5"/>
<path d="M4.70246 10.4689H9.31956C9.72034 10.4689 10.0444 10.0687 10.0444 9.57405C10.0444 9.07942 9.72014 8.6792 9.31956 8.6792H4.70246C4.30164 8.6792 3.97754 9.07942 3.97754 9.57405C3.97758 10.0685 4.30164 10.4689 4.70246 10.4689Z" fill="#29F4D5"/>
<path d="M4.70246 13.7012H9.31956C9.72034 13.7012 10.0444 13.301 10.0444 12.8064C10.0444 12.3118 9.72014 11.9116 9.31956 11.9116H4.70246C4.30164 11.9116 3.97754 12.3118 3.97754 12.8064C3.97758 13.301 4.30164 13.7012 4.70246 13.7012Z" fill="#29F4D5"/>
<path d="M4.70246 16.9336H9.31956C9.72034 16.9336 10.0444 16.5333 10.0444 16.0387C10.0444 15.5441 9.72014 15.1439 9.31956 15.1439H4.70246C4.30164 15.1439 3.97754 15.5441 3.97754 16.0387C3.97754 16.5333 4.30164 16.9336 4.70246 16.9336Z" fill="#29F4D5"/>
<path d="M4.70246 20.1661H9.31956C9.72034 20.1661 10.0444 19.7658 10.0444 19.2713C10.0444 18.7766 9.72014 18.3764 9.31956 18.3764H4.70246C4.30164 18.3764 3.97754 18.7766 3.97754 19.2713C3.97758 19.7658 4.30164 20.1661 4.70246 20.1661Z" fill="#29F4D5"/>
</svg>
